<svg width="48" height="48" viewBox="0 0 48 48" fill="none" xmlns="http://www.w3.org/2000/svg">
<path d="M12.0001 28.0504H27.6501V25.0504H12.0001V28.0504ZM12.0001 21.5504H36.0001V18.5504H12.0001V21.5504ZM12.0001 15.0504H36.0001V12.0504H12.0001V15.0504ZM3.70117 44.2993V7.10795C3.70117 6.18472 4.03892 5.38417 4.71442 4.7063C5.38996 4.0284 6.1877 3.68945 7.10767 3.68945H40.8925C41.8157 3.68945 42.6163 4.0284 43.2941 4.7063C43.972 5.38417 44.311 6.18472 44.311 7.10795V32.8928C44.311 33.8127 43.972 34.6105 43.2941 35.286C42.6163 35.9615 41.8157 36.2993 40.8925 36.2993H11.7012L3.70117 44.2993ZM10.4012 32.8928H40.8925V7.10795H7.10767V36.4862L10.4012 32.8928Z" fill="white"/>
</svg>
