<?xml version="1.0" encoding="utf-8"?>
<!-- Generator: Adobe Illustrator 23.0.5, SVG Export Plug-In . SVG Version: 6.00 Build 0)  -->
<svg version="1.1" id="Слой_1" xmlns="http://www.w3.org/2000/svg" xmlns:xlink="http://www.w3.org/1999/xlink" x="0px" y="0px"
	 viewBox="0 0 24 24" style="enable-background:new 0 0 24 24;" xml:space="preserve">
<style type="text/css">
	.st0{clip-path:url(#SVGID_2_);}
	.st1{fill:#111111;}
</style>
<g>
	<defs>
		<rect id="SVGID_1_" width="24" height="24"/>
	</defs>
	<clipPath id="SVGID_2_">
		<use xlink:href="#SVGID_1_"  style="overflow:visible;"/>
	</clipPath>
	<g class="st0">
		<path class="st1" d="M20.4,8.6l-1.2,1.8c0.6,1.2,0.9,2.5,0.8,3.8s-0.4,2.6-1.1,3.8H5.1c-0.9-1.5-1.2-3.2-1-4.9
			C4.3,11.4,5,9.8,6.2,8.5c1.2-1.3,2.7-2.1,4.4-2.4c1.7-0.3,3.4,0,5,0.7l1.8-1.2c-1.9-1.2-4.1-1.7-6.3-1.5C8.9,4.3,6.8,5.2,5.1,6.8
			c-1.6,1.5-2.7,3.6-3,5.8c-0.3,2.2,0.1,4.5,1.2,6.4c0.2,0.3,0.4,0.6,0.7,0.7c0.3,0.2,0.6,0.3,1,0.3h13.9c0.4,0,0.7-0.1,1-0.3
			c0.3-0.2,0.6-0.4,0.7-0.7c0.9-1.6,1.4-3.4,1.3-5.3C21.9,11.9,21.4,10.1,20.4,8.6L20.4,8.6z"/>
		<path class="st1" d="M10.6,15.4c0.2,0.2,0.4,0.3,0.6,0.4c0.2,0.1,0.5,0.2,0.8,0.2c0.3,0,0.5-0.1,0.8-0.2c0.2-0.1,0.5-0.2,0.6-0.4
			l5.7-8.5l-8.5,5.7c-0.2,0.2-0.3,0.4-0.4,0.6C10.1,13.5,10,13.7,10,14c0,0.3,0.1,0.5,0.2,0.8C10.3,15,10.4,15.2,10.6,15.4z"/>
	</g>
</g>
</svg>
