<?xml version="1.0" encoding="utf-8"?>
<!-- Generator: Adobe Illustrator 23.0.5, SVG Export Plug-In . SVG Version: 6.00 Build 0)  -->
<svg version="1.1" id="Слой_1" xmlns="http://www.w3.org/2000/svg" xmlns:xlink="http://www.w3.org/1999/xlink" x="0px" y="0px"
	 viewBox="0 0 24 24" style="enable-background:new 0 0 24 24;" xml:space="preserve">
<style type="text/css">
	.st0{clip-path:url(#SVGID_2_);}
	.st1{fill:#111111;}
</style>
<g>
	<g>
		<g>
			<defs>
				<rect id="SVGID_1_" width="24" height="24"/>
			</defs>
			<clipPath id="SVGID_2_">
				<use xlink:href="#SVGID_1_"  style="overflow:visible;"/>
			</clipPath>
			<g class="st0">
				<path class="st1" d="M19,3h-1V1h-2v2H8V1H6v2H5C3.9,3,3,3.9,3,5v14c0,1.1,0.9,2,2,2h14c1.1,0,2-0.9,2-2V5C21,3.9,20.1,3,19,3z
					 M19,19H5V9h14V19z M5,7V5h14v2H5z"/>
			</g>
		</g>
	</g>
</g>
<rect x="7.3" y="10.5" class="st1" width="4.3" height="2"/>
<rect x="7.3" y="15.5" class="st1" width="4.3" height="2"/>
<rect x="12.4" y="15.5" class="st1" width="4.3" height="2"/>
<rect x="12.4" y="10.5" class="st1" width="4.3" height="2"/>
<rect x="11.1" y="13.1" transform="matrix(6.123234e-17 -1 1 6.123234e-17 -0.7267 27.1552)" class="st1" width="4.3" height="1.6"/>
<rect x="8.6" y="13.1" transform="matrix(6.123234e-17 -1 1 6.123234e-17 -3.1552 24.7267)" class="st1" width="4.3" height="1.6"/>
<rect x="9.2" y="12.8" transform="matrix(-0.7071 -0.7071 0.7071 -0.7071 7.4 30.3535)" class="st1" width="1.6" height="1.6"/>
<rect x="13.8" y="13.1" transform="matrix(6.123234e-17 -1 1 6.123234e-17 1.9975 29.8794)" class="st1" width="4.3" height="1.6"/>
</svg>
