<svg width="128" height="128" viewBox="0 0 128 128" fill="none" xmlns="http://www.w3.org/2000/svg">
<path d="M37.8832 0.439941C17.4463 0.439941 0.817383 17.0786 0.817383 37.5206V90.4803C0.817383 110.92 17.4561 127.551 37.8981 127.551H90.8577C111.297 127.551 127.929 110.912 127.929 90.4704V37.5057C127.929 17.0688 111.29 0.439941 90.8478 0.439941H37.8832ZM102.506 20.7777C105.313 20.7777 107.591 23.0556 107.591 25.8622C107.591 28.6688 105.313 30.9466 102.506 30.9466C99.6997 30.9466 97.4218 28.6688 97.4218 25.8622C97.4218 23.0556 99.6997 20.7777 102.506 20.7777ZM64.3729 30.9466C82.6007 30.9466 97.4218 45.7678 97.4218 63.9955C97.4218 82.2232 82.5981 97.0444 64.3729 97.0444C46.1452 97.0444 31.3241 82.2207 31.3241 63.9955C31.3241 45.7703 46.1452 30.9466 64.3729 30.9466ZM64.3729 41.1155C51.7356 41.1155 41.4929 51.3581 41.4929 63.9955C41.4929 76.6329 51.7356 86.8755 64.3729 86.8755C77.0103 86.8755 87.2529 76.6329 87.2529 63.9955C87.2529 51.3581 77.0103 41.1155 64.3729 41.1155Z" fill="#F0B6A1"/>
</svg>
