<svg width="131" height="132" viewBox="0 0 131 132" fill="none" xmlns="http://www.w3.org/2000/svg">
<path d="M65.8065 0.914551C29.8656 0.914551 0.725586 30.0545 0.725586 65.9954C0.725586 78.2047 4.15503 89.5876 10.0047 99.3515L1.30818 131.076L33.7109 122.57C43.1874 127.958 54.1271 131.076 65.8065 131.076C101.747 131.076 130.887 101.936 130.887 65.9954C130.887 30.0545 101.747 0.914551 65.8065 0.914551ZM43.5303 35.6371C44.5878 35.6371 45.6745 35.6306 46.6127 35.6794C47.7733 35.7066 49.0365 35.7916 50.246 38.4653C51.6832 41.6434 54.8126 49.6162 55.2139 50.4243C55.6152 51.2324 55.8996 52.1844 55.341 53.242C54.8095 54.3266 54.5331 54.9831 53.7521 55.9431C52.944 56.8759 52.0586 58.0345 51.3264 58.7395C50.5183 59.5476 49.6839 60.4337 50.6167 62.0444C51.5495 63.6552 54.7892 68.9356 59.578 73.1984C65.7336 78.6977 70.9272 80.3877 72.5434 81.1958C74.1595 82.0039 75.0955 81.878 76.0283 80.7933C76.9883 79.7357 80.0599 76.1069 81.1446 74.4907C82.2021 72.8745 83.2817 73.1542 84.746 73.6857C86.2321 74.2172 94.1568 78.1209 95.7729 78.929C97.3891 79.7371 98.4486 80.1371 98.8554 80.7933C99.273 81.4712 99.2734 84.6985 97.9338 88.4623C96.5942 92.2208 90.0162 95.8553 87.0658 96.1102C84.0884 96.3868 81.3096 97.4485 67.7131 92.0956C51.3128 85.6363 40.9699 68.8385 40.1618 67.7538C39.3537 66.6963 33.5944 59.0204 33.5944 51.1023C33.5944 43.157 37.7602 39.2658 39.2191 37.6497C40.7051 36.0335 42.4456 35.6371 43.5303 35.6371Z" fill="#F0B6A1"/>
</svg>
