<?xml version="1.0" encoding="utf-8"?>
<!-- Generator: Adobe Illustrator 23.0.5, SVG Export Plug-In . SVG Version: 6.00 Build 0)  -->
<svg version="1.1" id="Слой_1" xmlns="http://www.w3.org/2000/svg" xmlns:xlink="http://www.w3.org/1999/xlink" x="0px" y="0px"
	 viewBox="0 0 24 24" style="enable-background:new 0 0 24 24;" xml:space="preserve">
<style type="text/css">
	.st0{clip-path:url(#SVGID_2_);}
	.st1{fill:#111111;}
</style>
<g>
	<defs>
		<rect id="SVGID_1_" width="24" height="24"/>
	</defs>
	<clipPath id="SVGID_2_">
		<use xlink:href="#SVGID_1_"  style="overflow:visible;"/>
	</clipPath>
	<g class="st0">
		<path class="st1" d="M9,13.8c-2.3,0-7,1.2-7,3.5V19h14v-1.8C16,14.9,11.3,13.8,9,13.8z M4.3,17c0.8-0.6,2.9-1.3,4.7-1.3
			s3.8,0.7,4.7,1.3H4.3z M9,12c1.9,0,3.5-1.6,3.5-3.5S10.9,5,9,5S5.5,6.6,5.5,8.5S7.1,12,9,12z M9,7c0.8,0,1.5,0.7,1.5,1.5
			S9.8,10,9,10S7.5,9.3,7.5,8.5S8.2,7,9,7z M16,13.8c1.2,0.8,2,2,2,3.4V19h4v-1.8C22,15.2,18.5,14.1,16,13.8z M15,12
			c1.9,0,3.5-1.6,3.5-3.5S16.9,5,15,5c-0.5,0-1,0.1-1.5,0.3c0.6,0.9,1,2,1,3.2s-0.4,2.3-1,3.1C14,11.9,14.5,12,15,12z"/>
	</g>
</g>
</svg>
