<?xml version="1.0" encoding="utf-8"?>
<!-- Generator: Adobe Illustrator 23.0.5, SVG Export Plug-In . SVG Version: 6.00 Build 0)  -->
<svg version="1.1" id="Слой_1" xmlns="http://www.w3.org/2000/svg" xmlns:xlink="http://www.w3.org/1999/xlink" x="0px" y="0px"
	 viewBox="0 0 24 24" style="enable-background:new 0 0 24 24;" xml:space="preserve">
<style type="text/css">
	.st0{clip-path:url(#SVGID_2_);}
	.st1{fill:#111111;}
</style>
<g>
	<defs>
		<rect id="SVGID_1_" width="24" height="24"/>
	</defs>
	<clipPath id="SVGID_2_">
		<use xlink:href="#SVGID_1_"  style="overflow:visible;"/>
	</clipPath>
	<g class="st0">
		<path class="st1" d="M19,6h-2c0-2.8-2.2-5-5-5S7,3.2,7,6H5C3.9,6,3,6.9,3,8v12c0,1.1,0.9,2,2,2h14c1.1,0,2-0.9,2-2V8
			C21,6.9,20.1,6,19,6z M12,3c1.7,0,3,1.3,3,3H9C9,4.3,10.3,3,12,3z M19,20H5V8h14V20z M12,12c-1.7,0-3-1.3-3-3H7c0,2.8,2.2,5,5,5
			s5-2.2,5-5h-2C15,10.7,13.7,12,12,12z"/>
	</g>
</g>
</svg>
