<?xml version="1.0" encoding="utf-8"?>
<!-- Generator: Adobe Illustrator 23.0.5, SVG Export Plug-In . SVG Version: 6.00 Build 0)  -->
<svg version="1.1" id="Слой_1" xmlns="http://www.w3.org/2000/svg" xmlns:xlink="http://www.w3.org/1999/xlink" x="0px" y="0px"
	 viewBox="0 0 24 24" style="enable-background:new 0 0 24 24;" xml:space="preserve">
<style type="text/css">
	.st0{clip-path:url(#SVGID_2_);}
	.st1{fill:#111111;}
</style>
<g>
	<defs>
		<rect id="SVGID_1_" width="24" height="24"/>
	</defs>
	<clipPath id="SVGID_2_">
		<use xlink:href="#SVGID_1_"  style="overflow:visible;"/>
	</clipPath>
	<g class="st0">
		<path class="st1" d="M18.5,16H7c-2.2,0-4-1.8-4-4s1.8-4,4-4h12.5c1.4,0,2.5,1.1,2.5,2.5S20.9,13,19.5,13H9c-0.6,0-1-0.4-1-1
			s0.4-1,1-1h9.5V9.5H9c-1.4,0-2.5,1.1-2.5,2.5s1.1,2.5,2.5,2.5h10.5c2.2,0,4-1.8,4-4s-1.8-4-4-4H7C4,6.5,1.5,9,1.5,12
			S4,17.5,7,17.5h11.5V16z"/>
	</g>
</g>
</svg>
