<?xml version="1.0" encoding="utf-8"?>
<!-- Generator: Adobe Illustrator 23.0.5, SVG Export Plug-In . SVG Version: 6.00 Build 0)  -->
<svg version="1.1" id="Слой_1" xmlns="http://www.w3.org/2000/svg" xmlns:xlink="http://www.w3.org/1999/xlink" x="0px" y="0px"
	 viewBox="0 0 24 24" style="enable-background:new 0 0 24 24;" xml:space="preserve">
<style type="text/css">
	.st0{clip-path:url(#SVGID_2_);}
	.st1{fill:#111111;}
</style>
<g>
	<defs>
		<rect id="SVGID_1_" width="24" height="24"/>
	</defs>
	<clipPath id="SVGID_2_">
		<use xlink:href="#SVGID_1_"  style="overflow:visible;"/>
	</clipPath>
	<g class="st0">
		<path class="st1" d="M20,18c1.1,0,2-0.9,2-2l0-11c0-1.1-0.9-2-2-2H4C2.9,3,2,3.9,2,5v11c0,1.1,0.9,2,2,2H0c0,1.1,0.9,2,2,2h20
			c1.1,0,2-0.9,2-2H20z M4,5h16v11H4V5z M12,19c-0.6,0-1-0.5-1-1s0.4-1,1-1s1,0.5,1,1S12.6,19,12,19z"/>
	</g>
</g>
</svg>
