<svg width="24" height="24" viewBox="0 0 24 24" fill="none" xmlns="http://www.w3.org/2000/svg">
<g clip-path="url(#clip0_177_89)">
<mask id="mask0_177_89" style="mask-type:luminance" maskUnits="userSpaceOnUse" x="0" y="0" width="24" height="24">
<path d="M24 0H0V24H24V0Z" fill="white"/>
</mask>
<g mask="url(#mask0_177_89)">
<path d="M20.3998 8.59999L19.1998 10.4C19.7998 11.6 20.0998 12.9 19.9998 14.2C19.8998 15.5 19.5998 16.8 18.8998 18H5.09985C4.19985 16.5 3.89985 14.8 4.09985 13.1C4.29985 11.4 4.99985 9.79999 6.19985 8.49999C7.39985 7.19999 8.89985 6.39999 10.5998 6.09999C12.2998 5.79999 13.9998 6.09999 15.5998 6.79999L17.3998 5.59999C15.4998 4.39999 13.2998 3.89999 11.0998 4.09999C8.89985 4.29999 6.79985 5.19999 5.09985 6.79999C3.49985 8.29999 2.39985 10.4 2.09985 12.6C1.79985 14.8 2.19985 17.1 3.29985 19C3.49985 19.3 3.69985 19.6 3.99985 19.7C4.29985 19.9 4.59985 20 4.99985 20H18.8998C19.2998 20 19.5998 19.9 19.8998 19.7C20.1998 19.5 20.4998 19.3 20.5998 19C21.4998 17.4 21.9998 15.6 21.8998 13.7C21.8998 11.9 21.3998 10.1 20.3998 8.59999Z" fill="white"/>
<path d="M10.6 15.3999C10.8 15.5999 11 15.6999 11.2 15.7999C11.4 15.8999 11.7 15.9999 12 15.9999C12.3 15.9999 12.5 15.8999 12.8 15.7999C13 15.6999 13.3 15.5999 13.4 15.3999L19.1 6.8999L10.6 12.5999C10.4 12.7999 10.3 12.9999 10.2 13.1999C10.1 13.4999 10 13.6999 10 13.9999C10 14.2999 10.1 14.4999 10.2 14.7999C10.3 14.9999 10.4 15.1999 10.6 15.3999Z" fill="white"/>
</g>
</g>
<defs>
<clipPath id="clip0_177_89">
<rect width="24" height="24" fill="white"/>
</clipPath>
</defs>
</svg>
