<svg width="24" height="24" viewBox="0 0 24 24" fill="none" xmlns="http://www.w3.org/2000/svg">
<g clip-path="url(#clip0_177_127)">
<mask id="mask0_177_127" style="mask-type:luminance" maskUnits="userSpaceOnUse" x="0" y="0" width="24" height="24">
<path d="M24 0H0V24H24V0Z" fill="white"/>
</mask>
<g mask="url(#mask0_177_127)">
<path d="M19 3H18V1H16V3H8V1H6V3H5C3.9 3 3 3.9 3 5V19C3 20.1 3.9 21 5 21H19C20.1 21 21 20.1 21 19V5C21 3.9 20.1 3 19 3ZM19 19H5V9H19V19ZM5 7V5H19V7H5Z" fill="white"/>
</g>
<path d="M11.5998 10.5H7.2998V12.5H11.5998V10.5Z" fill="white"/>
<path d="M11.5998 15.5H7.2998V17.5H11.5998V15.5Z" fill="white"/>
<path d="M16.6999 15.5H12.3999V17.5H16.6999V15.5Z" fill="white"/>
<path d="M16.6999 10.5H12.3999V12.5H16.6999V10.5Z" fill="white"/>
<path d="M12.3735 11.7552V16.0552H13.9735V11.7552H12.3735Z" fill="white"/>
<path d="M9.94482 11.8267V16.1267H11.5448V11.8267H9.94482Z" fill="white"/>
<path d="M8.81444 13.666L9.9458 14.7974L11.0772 13.666L9.9458 12.5346L8.81444 13.666Z" fill="white"/>
<path d="M15.0977 11.7793V16.0793H16.6977V11.7793H15.0977Z" fill="white"/>
</g>
<defs>
<clipPath id="clip0_177_127">
<rect width="24" height="24" fill="white"/>
</clipPath>
</defs>
</svg>
