<svg width="24" height="24" viewBox="0 0 24 24" fill="none" xmlns="http://www.w3.org/2000/svg">
<g clip-path="url(#clip0_177_110)">
<mask id="mask0_177_110" style="mask-type:luminance" maskUnits="userSpaceOnUse" x="0" y="0" width="24" height="24">
<path d="M24 0H0V24H24V0Z" fill="white"/>
</mask>
<g mask="url(#mask0_177_110)">
<path d="M15.5 1H7.5C6.1 1 5 2.1 5 3.5V20.5C5 21.9 6.1 23 7.5 23H15.5C16.9 23 18 21.9 18 20.5V3.5C18 2.1 16.9 1 15.5 1ZM11.5 22C10.7 22 10 21.3 10 20.5C10 19.7 10.7 19 11.5 19C12.3 19 13 19.7 13 20.5C13 21.3 12.3 22 11.5 22ZM16 18H7V4H16V18Z" fill="white"/>
</g>
</g>
<defs>
<clipPath id="clip0_177_110">
<rect width="24" height="24" fill="white"/>
</clipPath>
</defs>
</svg>
